<svg width="40" height="27" viewBox="0 0 40 27" fill="none" xmlns="http://www.w3.org/2000/svg">
<path d="M39.0942 10.5289C38.4055 10.5463 37.7146 10.5318 37.0249 10.5347C36.4676 10.5369 36.2547 10.6881 36.2506 11.0812C36.2474 11.3302 36.2506 11.5792 36.2506 11.8224H35.0494C35.0265 11.7999 35.0129 11.7934 35.0129 11.7862C35.0077 11.5422 35.0067 11.2976 35.0004 11.0537C34.992 10.6968 34.7708 10.5376 34.2637 10.5354C33.5081 10.5318 32.7536 10.5318 31.9981 10.5354C31.4837 10.5376 31.2593 10.6932 31.252 11.0464C31.2468 11.3048 31.252 11.564 31.252 11.8158H30.0008C30.0008 11.5321 30.0091 11.2694 29.9987 11.0081C29.9872 10.7041 29.7535 10.5463 29.3152 10.5354C29.1378 10.5311 28.9604 10.5354 28.7517 10.5354C28.7517 9.86372 28.7318 9.22314 28.76 8.58256C28.7736 8.2677 28.6108 8.06359 28.2539 7.87467C25.7901 6.57036 23.3388 5.25446 20.8834 3.94146C20.4618 3.71563 20.5035 3.47171 20.9877 3.32694C22.1346 2.9853 23.2804 2.64222 24.4293 2.30492C24.7497 2.21082 25.0189 2.09139 24.9939 1.81779C24.9678 1.54491 24.6787 1.45009 24.3437 1.38495C23.0059 1.12365 21.6702 0.855117 20.3324 0.593096C19.7073 0.470771 19.3786 0.643763 19.3765 1.09398C19.3734 1.88149 19.3598 2.669 19.3848 3.45578C19.3921 3.70767 19.2867 3.86401 18.9945 4.01819C16.561 5.30513 14.1442 6.608 11.7117 7.89639C11.3777 8.07372 11.2316 8.2677 11.2431 8.56085C11.2682 9.20939 11.2504 9.85865 11.2504 10.534C11.0866 10.534 10.9603 10.534 10.8341 10.534C10.1975 10.5369 10.0023 10.6744 10.0003 11.1217C9.99922 11.3541 10.0003 11.5864 10.0003 11.8173H8.7501C8.7501 11.5451 8.75532 11.2925 8.74905 11.0399C8.74071 10.6997 8.51635 10.5383 8.03319 10.5354C7.26514 10.5303 6.49709 10.5311 5.72904 10.5354C5.23962 10.5383 5.01109 10.6961 5.00274 11.0327C4.99648 11.2925 5.0017 11.5524 5.0017 11.8209H3.79223C3.77345 11.7963 3.76197 11.7891 3.76197 11.7811C3.75779 11.5372 3.75675 11.2925 3.75049 11.0486C3.7411 10.6947 3.51778 10.5383 3.00644 10.5354C2.3031 10.5318 1.60079 10.534 0.897446 10.5347C0.179489 10.5347 0 10.6599 0 11.1601C0 16.1008 0 21.0416 0 25.9823C0 26.4818 0.180533 26.6077 0.897446 26.6077C13.6297 26.6077 26.362 26.607 39.0942 26.6128C39.4751 26.6128 39.7788 26.5563 40 26.3363V10.8054C39.7798 10.5846 39.4772 10.5195 39.0942 10.5289ZM20.6413 1.55722C21.2476 1.67809 21.8278 1.79318 22.505 1.92853C21.8382 2.12831 21.2538 2.30275 20.6413 2.4866V1.55722ZM14.0669 7.73932C15.9651 6.72453 17.8644 5.71191 19.7584 4.69351C19.9275 4.60303 20.035 4.57842 20.2238 4.68048C22.1774 5.73363 24.1403 6.77882 26.099 7.8269C26.1282 7.84283 26.1501 7.86526 26.22 7.91665H13.7674C13.9 7.83776 13.9803 7.78564 14.0669 7.73932ZM12.4735 15.7483C12.2794 15.7483 12.0884 15.7425 11.8985 15.7498C11.504 15.7635 11.2776 15.9213 11.2536 16.1935C11.2462 16.2745 11.2515 16.3563 11.2515 16.4374C11.2515 19.4231 11.2515 22.4096 11.2515 25.3953V25.7261H1.27834V11.4156H2.50033C2.50033 11.6877 2.49511 11.9476 2.50137 12.2074C2.50972 12.5433 2.7393 12.7018 3.22767 12.7047C3.99572 12.709 4.76377 12.709 5.53182 12.7047C6.01393 12.7018 6.24038 12.5389 6.24768 12.1995C6.25395 11.9469 6.24873 11.6942 6.24873 11.4228H7.49889C7.49889 11.6819 7.49367 11.9411 7.49994 12.2009C7.50724 12.5404 7.73264 12.7025 8.21685 12.7054C8.98489 12.7105 9.75294 12.7098 10.521 12.7054C11.0094 12.7025 11.2379 12.5433 11.2473 12.2074C11.2546 11.9541 11.2483 11.7008 11.2483 11.4257H12.4714V15.7483H12.4735ZM12.5006 9.66105V8.81201H27.4681V10.5354C27.3168 10.5354 27.154 10.534 26.9902 10.5354C26.4799 10.5419 26.2524 10.6961 26.2513 11.0515C26.2472 12.2545 26.2503 13.4582 26.2503 14.6612C26.2503 15.0122 26.2503 15.364 26.2503 15.7273C26.171 15.7389 26.1459 15.7469 26.1209 15.7454C25.0774 15.6948 24.9511 15.9249 24.998 16.5699C25.0095 16.7211 25.0001 16.8724 25.0001 17.0374H22.4998C22.4998 16.7812 22.504 16.5228 22.4998 16.2651C22.4925 15.9097 22.2692 15.7505 21.7599 15.7491C20.5891 15.7462 19.4172 15.7462 18.2463 15.7491C17.7329 15.7505 17.5096 15.9076 17.5023 16.2615C17.4971 16.5134 17.5023 16.7653 17.5023 17.0345H15.002C15.002 16.7957 15.003 16.5626 15.002 16.3303C14.9999 15.8888 14.8006 15.752 14.1588 15.7491C14.0419 15.7491 13.9261 15.7491 13.7518 15.7491V15.4523C13.7518 14.0409 13.7518 12.6301 13.7518 11.2187C13.7518 10.6418 13.612 10.5434 12.7813 10.5354C12.7051 10.5354 12.6279 10.5311 12.5016 10.5267V9.66177L12.5006 9.66105ZM22.4852 25.7261H17.5012C17.5012 25.6175 17.5012 25.5046 17.5012 25.3917C17.5012 24.7953 17.496 24.1996 17.5023 23.6032C17.5106 22.8272 18.3069 22.2735 19.4193 22.2641C19.8346 22.2605 20.251 22.2576 20.6663 22.2656C21.594 22.2829 22.4132 22.7527 22.4695 23.3918C22.5374 24.1627 22.4852 24.9386 22.4852 25.7254V25.7261ZM27.4744 25.7232H23.751C23.751 25.6443 23.751 25.5589 23.751 25.4735C23.751 24.8489 23.7573 24.2249 23.7489 23.6003C23.7333 22.3452 22.385 21.4013 20.5839 21.3984C19.821 21.397 19.0488 21.334 18.3037 21.5294C17.0911 21.8472 16.2761 22.6224 16.2553 23.5221C16.2406 24.1641 16.2511 24.8069 16.2511 25.4496C16.2511 25.5372 16.2511 25.6255 16.2511 25.7261H12.5288V16.6299H13.7508C13.7508 16.8934 13.7476 17.1446 13.7508 17.3957C13.757 17.7547 13.9772 17.9169 14.4802 17.9183C15.6646 17.9219 16.849 17.9227 18.0345 17.9183C18.5156 17.9169 18.741 17.7519 18.7483 17.4117C18.7545 17.159 18.7493 16.9072 18.7493 16.6357H21.2496C21.2496 16.8963 21.2444 17.1562 21.2507 17.4153C21.259 17.754 21.4844 17.9169 21.9686 17.9183C23.1531 17.9227 24.3375 17.9219 25.5229 17.9183C26.0103 17.9169 26.2367 17.7555 26.2482 17.4189C26.2524 17.2922 26.2482 17.1656 26.2482 17.0389C26.2482 16.9122 26.2482 16.7863 26.2482 16.6379H27.4723V25.7232H27.4744ZM38.7227 25.7261H28.7506V16.4924C28.7506 15.8308 28.6484 15.7577 27.7133 15.7462C27.6612 15.7462 27.61 15.7418 27.5297 15.7382V11.4199H28.7506C28.7506 11.6856 28.7454 11.9454 28.7517 12.2053C28.76 12.5418 28.9875 12.7018 29.4759 12.704C30.2439 12.7083 31.012 12.7083 31.78 12.704C32.2642 12.7011 32.4907 12.5389 32.499 12.2002C32.5053 11.9476 32.5001 11.695 32.5001 11.4221H33.7502C33.7502 11.679 33.7461 11.9382 33.7513 12.1973C33.7586 12.5375 33.984 12.7003 34.4651 12.7032C35.2331 12.7083 36.0011 12.7076 36.7692 12.7032C37.2722 12.7003 37.4924 12.5389 37.4986 12.1799C37.5028 11.9288 37.4986 11.6776 37.4986 11.4149H38.7206V25.7247L38.7227 25.7261Z" fill="#464547"/>
<path d="M6.49615 15.7525C4.90684 15.6685 3.43023 16.4184 3.209 17.5135C3.07438 18.1794 3.14012 18.8649 3.1276 19.5417C3.1203 19.9434 3.34466 20.0896 3.9353 20.0903C4.71587 20.0918 5.4954 20.0903 6.27597 20.0903C7.06906 20.0903 7.86215 20.0939 8.65628 20.0889C9.13944 20.086 9.37007 19.9238 9.3732 19.5858C9.37842 19.0075 9.38989 18.4284 9.36902 17.8501C9.32937 16.747 8.06981 15.8343 6.4972 15.7518L6.49615 15.7525ZM8.12199 19.2008H4.38611C4.38611 18.7143 4.34124 18.2352 4.39655 17.7618C4.47586 17.0872 5.35869 16.59 6.33649 16.6167C7.29029 16.6428 8.08442 17.1842 8.11782 17.8537C8.14078 18.2953 8.12199 18.7375 8.12199 19.2008Z" fill="#464547"/>
<path d="M34.0204 15.7543C32.4238 15.6581 30.9294 16.4152 30.7071 17.5248C30.5715 18.1994 30.6393 18.8942 30.6289 19.5804C30.6237 19.9322 30.8605 20.0885 31.3729 20.0907C32.166 20.0943 32.9591 20.0914 33.7532 20.0914C34.5599 20.0914 35.3655 20.095 36.1722 20.09C36.6334 20.0871 36.8693 19.9235 36.8734 19.6036C36.8807 19.0253 36.888 18.4462 36.8703 17.8679C36.8359 16.7612 35.5982 15.8492 34.0204 15.7543ZM35.6212 19.2113H31.8446C31.8811 18.6561 31.8363 18.0937 31.9761 17.5537C32.1337 16.9436 33.0614 16.5549 33.9536 16.6222C34.8469 16.6895 35.5753 17.2034 35.616 17.8273C35.6452 18.2775 35.6212 18.7292 35.6212 19.2105V19.2113Z" fill="#464547"/>
<path d="M16.879 13.4896C16.8727 13.8544 17.1096 14.0072 17.6501 14.0086C18.4307 14.0108 19.2113 14.0086 19.9908 14.0086C20.7839 14.0086 21.578 14.0108 22.3711 14.0079C22.8866 14.0057 23.1204 13.8508 23.1235 13.5012C23.1287 12.9229 23.1392 12.3438 23.1193 11.7655C23.0797 10.6639 21.816 9.74969 20.2433 9.67007C18.6499 9.589 17.1795 10.336 16.9583 11.4333C16.8226 12.1079 16.8884 12.8027 16.8779 13.4889L16.879 13.4896ZM18.2356 11.4485C18.4015 10.8427 19.3574 10.4612 20.2392 10.543C21.1345 10.6262 21.8379 11.1445 21.8692 11.7706C21.8911 12.2121 21.8734 12.6544 21.8734 13.1285H18.0916C18.1323 12.5675 18.0863 11.9957 18.2356 11.4485Z" fill="#464547"/>
</svg>
