<svg width="17" height="14" viewBox="0 0 17 14" fill="none" xmlns="http://www.w3.org/2000/svg">
<path d="M16.5242 1.69534C15.9942 1.94252 15.4142 2.0867 14.8542 2.18969C15.1242 2.1382 15.5142 1.64385 15.6742 1.43787C15.9142 1.1289 16.1142 0.778738 16.2342 0.397679C16.2442 0.366782 16.2642 0.325586 16.2342 0.304988C16.1942 0.294689 16.1742 0.304988 16.1442 0.304988C15.5142 0.655151 14.8542 0.902326 14.1642 1.08771C14.1042 1.098 14.0642 1.08771 14.0242 1.04651C13.9642 0.974418 13.9142 0.912624 13.8542 0.86113C13.5642 0.603657 13.2442 0.407978 12.8942 0.253494C12.4242 0.0578144 11.9242 -0.024577 11.4242 0.00631979C10.9342 0.0372165 10.4542 0.181401 10.0242 0.407977C9.59418 0.644853 9.20419 0.964119 8.89419 1.35548C8.57419 1.75714 8.34419 2.24118 8.22419 2.74583C8.10419 3.22988 8.11419 3.71393 8.18419 4.20828C8.19419 4.29067 8.18419 4.30097 8.11419 4.29067C5.39419 3.86841 3.13419 2.86942 1.29419 0.716945C1.21419 0.624255 1.17419 0.624255 1.10419 0.716945C0.304187 1.95281 0.694185 3.94051 1.69418 4.9189C1.82418 5.05279 1.96418 5.17638 2.11418 5.29996C2.06418 5.31026 1.39419 5.23817 0.794185 4.9189C0.714185 4.86741 0.674186 4.8983 0.664186 4.99099C0.664186 5.12488 0.664187 5.24847 0.684187 5.39265C0.834187 6.64912 1.68419 7.8129 2.83419 8.26605C2.97419 8.32784 3.12418 8.37934 3.27418 8.39994C3.01418 8.46173 2.74419 8.50293 1.98419 8.44113C1.89419 8.42053 1.85419 8.47203 1.89419 8.56472C2.46419 10.1611 3.68419 10.6348 4.60419 10.9026C4.72419 10.9232 4.85419 10.9232 4.97419 10.9541C4.97419 10.9644 4.96419 10.9644 4.95419 10.9747C4.65418 11.4484 3.59419 11.8089 3.10419 11.984C2.21419 12.3032 1.23419 12.4474 0.294185 12.3547C0.144185 12.3341 0.114186 12.3341 0.0741859 12.3547C0.0341859 12.3856 0.0741849 12.4165 0.114185 12.4577C0.304185 12.5916 0.504185 12.7049 0.704185 12.8182C1.30419 13.1477 1.93419 13.4052 2.58419 13.5906C5.96419 14.5484 9.76419 13.8481 12.3042 11.2527C14.2942 9.21355 14.9942 6.40195 14.9942 3.59034C14.9942 3.47705 15.1242 3.41526 15.1942 3.36377C15.7142 2.96211 16.1342 2.47806 16.5142 1.94252C16.6042 1.81893 16.6042 1.71594 16.6042 1.67474C16.6042 1.61295 16.6042 1.63355 16.5342 1.66445L16.5242 1.69534Z" fill="#7E7E7E"/>
</svg>
