<svg width="16" height="15" viewBox="0 0 16 15" fill="none" xmlns="http://www.w3.org/2000/svg">
<g id="Group">
<path id="Vector" d="M8.07368 5.13623C6.77317 5.13623 5.7041 6.19428 5.7041 7.50581C5.7041 8.81735 6.76215 9.87539 8.07368 9.87539C9.38522 9.87539 10.4433 8.81735 10.4433 7.50581C10.4433 6.19428 9.38522 5.13623 8.07368 5.13623Z" fill="#7E7E7E"/>
<path id="Vector_2" d="M12.2727 0L3.7312 0C1.94574 0 0.501953 1.44379 0.501953 3.22924L0.501953 11.7708C0.501953 13.5562 1.94574 15 3.7312 15L12.2727 15C14.0582 15 15.502 13.5562 15.502 11.7708L15.502 3.22924C15.502 1.44379 14.0582 0 12.2727 0ZM8.06257 11.1976C6.02363 11.1976 4.37043 9.54445 4.37043 7.50551C4.37043 5.46657 6.02363 3.81337 8.06257 3.81337C10.1015 3.81337 11.7547 5.46657 11.7547 7.50551C11.7547 9.54445 10.1015 11.1976 8.06257 11.1976ZM11.9751 4.44159C11.4902 4.44159 11.0934 4.04482 11.0934 3.55988C11.0934 3.07494 11.4902 2.67818 11.9751 2.67818C12.4601 2.67818 12.8568 3.07494 12.8568 3.55988C12.8568 4.04482 12.4601 4.44159 11.9751 4.44159Z" fill="#7E7E7E"/>
</g>
</svg>
