<svg width="15" height="15" viewBox="0 0 15 15" fill="none" xmlns="http://www.w3.org/2000/svg">
<path id="Vector" d="M11.7708 0H3.22924C1.44379 0 0 1.44379 0 3.22924V11.7708C0 13.5562 1.44379 15 3.22924 15H11.7708C13.5562 15 15 13.5562 15 11.7708V3.22924C15 1.44379 13.5562 0 11.7708 0ZM10.9111 7.92432L8.277 9.44526L5.64291 10.9662C5.32329 11.1536 4.92652 10.9221 4.92652 10.5474V4.46363C4.92652 4.08891 5.32329 3.86848 5.64291 4.04482L8.277 5.56576L10.9111 7.0867C11.2307 7.27406 11.2307 7.73696 10.9111 7.9133V7.92432Z" fill="#7E7E7E"/>
</svg>
